<?xml version="1.0" encoding="UTF-8"?>
<svg id="Camada_2" data-name="Camada 2" xmlns="http://www.w3.org/2000/svg" viewBox="0 0 619.59 156.68">
  <defs>
    <style>
      .cls-1 {
        fill: #070707;
      }
    </style>
  </defs>
  <g id="Camada_1-2" data-name="Camada 1">
    <g>
      <g>
        <polygon class="cls-1" points="43.76 90.26 48.08 91.63 53.98 90.86 55.86 81.42 53.44 79.35 40.91 86.76 43.76 90.26"/>
        <polygon class="cls-1" points="139.29 134.52 142.33 139.72 149.78 138.77 148.65 131.48 145.51 133.1 139.29 134.52"/>
        <polygon class="cls-1" points="29.06 106.15 27.41 112.08 31.28 118.23 35.24 118.05 44.62 117.63 53.69 113.66 55.6 112.82 55.37 112.06 54.07 107.7 53.32 105.24 40.08 107.59 29.06 106.15"/>
        <polygon class="cls-1" points="14.33 91.28 19.83 95.33 27.71 98.14 30.44 90.34 27.47 89.64 21.8 83.58 16.45 86.2 14.33 91.28"/>
        <polygon class="cls-1" points="39.6 85.34 53.2 78.13 60.33 70.43 47.81 68.18 36.92 58.25 32.63 71.57 35.15 82.91 39.6 85.34"/>
        <polygon class="cls-1" points="13.02 98.14 5.14 90.96 1.48 85.69 0 87.5 1.1 95.21 6.52 103.37 8.11 101.06 13.02 98.14"/>
        <path class="cls-1" d="M24.34,115.81l2.88.88-2.19-4.46s1.71-5.43,1.98-5.79l-6.7-2.02-6.31-4.75-4.9,1.68-1.82,5.05,2.47,2.43,3.74,3.68,10.85,3.29Z"/>
        <polygon class="cls-1" points="192.09 102.82 191.87 108.35 194.99 106.56 196.51 105.69 200.91 103.17 207.94 95.5 209.98 81.82 205.88 76.43 199.57 92.67 187.58 98.73 192.09 102.82"/>
        <polygon class="cls-1" points="168.3 73.99 170.84 81.26 177 85.28 187.85 80.24 184.12 69.83 185.82 62.66 168.3 73.99"/>
        <polygon class="cls-1" points="190.78 108.6 189.93 102.73 184.5 99.02 176.71 102.21 162.58 101.64 162.19 111.45 168.74 111.24 178.2 110.92 189.39 108.85 190.78 108.6"/>
        <polygon class="cls-1" points="61.57 68.73 91.04 55.16 99.88 43.03 82.6 44.09 102.43 18.15 78.46 17.19 50.72 35.82 39.3 54.35 49.23 65.99 61.57 68.73"/>
        <path class="cls-1" d="M140.33,26.19c.06-.1.13-.22.2-.34.07-.12.15-.22.22-.34.12-.16.23-.32.37-.48.06-.07.12-.16.18-.23.06-.06.12-.13.16-.19.07-.09.16-.16.23-.23.06-.06.1-.12.16-.18.04-.04.1-.09.15-.13.07-.06.13-.13.2-.19l-15.21-21.84,6.23,44.12,34.95,25.76,16.73-10.16-16.6-43.34L130.07,0l14.38,22.35s.04-.01.06-.03c.1-.04.2-.07.31-.12.03-.01.04-.03.06-.03.06-.03.12-.04.18-.07.23-.09.48-.18.73-.26h.03c.28-.09.57-.16.85-.22.06-.01.13-.03.19-.04.25-.04.5-.07.75-.1.06-.01.12-.01.18-.01.15-.01.29-.04.45-.04.13-.01.25,0,.38,0h.04c.31,0,.61.01.92.04h.03c.76.09,1.52.23,2.28.51.45.16.88.37,1.3.59.03.01.04.03.06.04.2.1.39.22.58.34.12.07.22.15.34.23.1.06.19.13.29.2.16.13.32.25.47.38.03.03.06.06.1.07.03.04.06.07.1.12.1.09.2.18.29.26s.18.19.25.28c.03.03.04.04.07.07.19.22.38.44.56.66.01.03.03.06.04.07.18.23.32.47.48.7.01.03.03.07.06.1.09.15.18.31.26.47.04.1.1.2.15.31h.01v.03c.06.13.13.25.19.38.5,1.2.76,2.46.76,3.73,0,1.1-.19,2.15-.56,3.19,0,.01,0,.03-.01.04h0c-.06.18-.13.35-.19.51-.04.09-.09.16-.12.23-.04.09-.09.18-.13.26-.09.18-.18.37-.28.53-.07.13-.15.23-.22.35-.06.12-.13.23-.2.34-.23.32-.47.64-.73.95-.88.97-1.9,1.74-3.06,2.28-1.17.56-2.41.86-3.71.92-.44.03-.88,0-1.32-.04-.04,0-.1-.01-.15-.01-.18-.03-.35-.04-.53-.07-.75-.13-1.46-.34-2.18-.63-.67-.28-1.29-.64-1.89-1.08-.03-.03-.04-.04-.07-.07-.18-.12-.35-.26-.51-.39-.06-.04-.12-.09-.16-.13-.09-.07-.16-.16-.23-.23-.06-.06-.12-.1-.16-.15-.04-.06-.09-.1-.13-.15-.1-.1-.2-.22-.31-.34-.15-.16-.28-.32-.41-.5-.03-.04-.07-.09-.1-.13-.45-.6-.83-1.24-1.13-1.93-.5-1.2-.75-2.46-.75-3.74s.25-2.53.75-3.73c.16-.38.35-.73.56-1.08Z"/>
        <polygon class="cls-1" points="160.83 120.56 161.89 120.99 170.23 124.36 170.66 124.53 183.66 128.46 183.85 123.72 183.63 123.23 181.03 117.48 180.48 116.26 173.5 115.98 169.11 114.62 162.15 112.45 161.65 117.01 161.24 120.66 160.83 120.56"/>
        <polygon class="cls-1" points="173.79 96.26 181.95 94.17 186.9 82.8 177.31 87.24 169.02 82.08 155.54 83.96 161.74 97.7 169.66 95.26 173.79 96.26"/>
        <polygon class="cls-1" points="144.22 125.18 131.72 125.97 138.28 132.81 141.44 132.94 146.75 131.32 148.18 130.88 146.42 128.35 144.22 125.18"/>
        <polygon class="cls-1" points="13.71 90.26 15.47 85.66 21.18 82.31 17.05 77.48 13.66 72.69 12.63 64.99 10.26 61.89 6.46 73.7 12.54 88.3 13.71 90.26"/>
        <polygon class="cls-1" points="33.43 103.11 43.32 103.51 53.38 103.91 52.41 94.71 41.56 93.37 34.12 89.9 31.88 90.48 29.35 98.96 33.43 103.11"/>
        <polygon class="cls-1" points="197.74 115.78 194.59 115.86 189.92 115.98 182.32 116.17 182.93 117.6 184.76 121.89 184.74 123.22 184.66 128.5 188.94 127.98 194.08 127.35 194.95 127.25 204.02 123.28 201.56 118.1 197.74 115.78"/>
        <polygon class="cls-1" points="159.38 119.42 161.03 107.03 161.51 103.47 154.07 83.36 133.98 73.44 134.46 68.63 130.87 66.91 127.79 71.03 122.08 70.22 122.95 67.18 121.87 67.13 120.5 67.99 112.3 69 100.44 68.19 93.44 66 92.43 66.29 92.67 68.63 88.68 68.39 86.58 66.81 84.9 65.08 81.43 66.52 82.45 70.22 69.29 75.69 56.89 81.8 53.96 97.56 56.16 107.44 57.25 112.33 62.64 121.06 65.04 121.39 75.25 122.8 99.73 126.2 103.14 126.67 114.96 126.01 115.76 125.97 121.68 125.64 142.44 124.49 146.04 124.84 150.9 125.32 154.86 122.56 159.38 119.42"/>
        <polygon class="cls-1" points="13.34 116.14 12.3 116.09 14.03 121.87 18.79 127.86 21.14 122.15 13.34 116.14"/>
        <polygon class="cls-1" points="212.07 107.2 207.14 111.66 199.78 114.62 198.69 114.91 202.73 117.98 205.54 122.71 209.85 118.85 213.44 111.21 212.07 107.2"/>
        <polygon class="cls-1" points="178.96 133.6 173.85 130.32 169.41 128.81 166.16 139.42 171.23 141.54 180.16 143.06 181.31 141.44 183.78 133.79 178.96 133.6"/>
        <polygon class="cls-1" points="130.05 151.3 127.13 154.18 132.32 156.68 136.96 155.31 141.84 154.02 136.18 149.88 130.05 151.3"/>
        <polygon class="cls-1" points="70.17 134.47 64.26 132.36 59.58 132.26 59.31 138.95 62.03 142.39 70 138.67 70.17 134.47"/>
        <polygon class="cls-1" points="78.18 149.06 75.07 153.77 79.51 155.76 79.97 155.96 84.3 156.13 88.56 153.6 79.14 147.61 78.18 149.06"/>
        <polygon class="cls-1" points="144.93 140.56 142.27 141.13 140.78 145.24 137.59 148.69 137.21 149.09 138.06 149.83 142.12 153.37 146.06 151.69 150.22 146.83 150.47 146.54 149.75 139.52 144.93 140.56"/>
        <polygon class="cls-1" points="56.43 114.06 48.04 120.72 41.13 121.82 37.03 124.41 40.26 131.44 40.71 132.42 41.51 132.45 44.03 132.55 49.75 129.44 50.58 128.99 51.74 128.37 52.7 127.52 52.72 127.5 60.02 121.08 56.43 114.06"/>
        <polygon class="cls-1" points="35.05 123.95 24.32 123.53 22.71 123.46 20.81 130.38 24.29 131.63 27.46 132.77 35.35 132.42 37.84 132.31 35.29 124.68 35.05 123.95"/>
        <polygon class="cls-1" points="65.45 131.7 68.03 132.6 70.97 133.63 75.3 128.81 79.16 124.51 75.26 124.1 65.56 123.09 65.5 123.13 63.05 124.9 62.82 125.06 62.33 125.77 59.68 129.68 64.28 131.29 65.45 131.7"/>
        <polygon class="cls-1" points="198.45 132.6 194.78 133.57 193.81 133.61 188.51 133.83 185.61 133.95 183.31 137.19 182.19 140.97 181.68 142.7 182.21 142.59 187.95 141.43 190.91 140.82 193.54 139.62 196.22 138.4 196.89 138.09 197.78 137.68 198.15 136.66 199 134.32 199.75 132.27 199.12 132.43 198.45 132.6"/>
        <polygon class="cls-1" points="162.07 123.81 160.01 122.19 157.16 123.62 151.26 126.59 151.18 128.58 156.53 132.29 157.17 133.37 159.57 137.41 164.08 139.34 165.9 134.32 168.01 128.5 162.07 123.81"/>
        <polygon class="cls-1" points="77.48 147.54 70.17 140.59 69.94 140.37 63.96 143.56 62.96 144.09 67.33 149.7 68.46 151.14 72.6 152.97 73.34 152.44 75.86 150.64 77.48 147.54"/>
      </g>
      <g>
        <g>
          <path class="cls-1" d="M285.37,90.61c-2.45.98-4.91,1.59-7.36,1.82l-11.53,20.77c3.06.63,6.17.94,9.3.94,6.14,0,12.02-1.15,17.77-3.45,5.62-2.18,10.74-5.5,15.47-10.23l-15.21-15.34c-2.56,2.56-5.37,4.35-8.44,5.5Z"/>
          <path class="cls-1" d="M275.91,20.18c-6.14,0-12.02,1.15-17.77,3.45-5.75,2.3-10.99,5.75-15.59,10.35-4.47,4.47-7.8,9.46-10.1,15.08-2.43,5.63-3.58,11.64-3.58,18.15s1.15,12.4,3.58,17.9c2.3,5.75,5.62,10.87,10.1,15.34,1.38,1.34,2.79,2.58,4.24,3.72l10.77-19.41c-2.15-2.23-3.83-4.92-5.17-7.96-1.28-2.94-1.92-6.14-1.92-9.59s.64-6.65,1.92-9.71c1.41-3.19,3.19-6,5.5-8.31,2.43-2.43,5.24-4.35,8.44-5.63,3.19-1.15,6.26-1.79,9.46-1.79s6.26.64,9.59,1.79c3.19,1.28,6.01,3.2,8.44,5.63l15.21-15.21c-4.6-4.6-9.72-8.05-15.47-10.35-5.75-2.3-11.63-3.45-17.64-3.45Z"/>
          <path class="cls-1" d="M341.55,20.14l-32.01,93.96h41.42l-14.92-11-6.23-44.13,14.37,20.63c-.09.09-.19.18-.28.27-1.04,1.04-1.84,2.23-2.42,3.58-.58,1.4-.88,2.87-.88,4.36s.3,2.97.88,4.37c.55,1.31,1.35,2.47,2.42,3.54,1.06,1.07,2.22,1.86,3.54,2.41,1.4.58,2.87.89,4.36.89s2.97-.31,4.37-.89c1.34-.58,2.53-1.37,3.57-2.41s1.87-2.23,2.42-3.54c.58-1.4.88-2.87.88-4.37s-.3-2.96-.88-4.36c-.58-1.35-1.38-2.54-2.42-3.58s-2.2-1.8-3.57-2.38c-1.4-.58-2.87-.88-4.37-.88s-2.96.3-4.36.88c-.34.15-.68.31-1,.49l-13.54-21.05,38.23,18.43,14.84,38.74h6.4l-30.34-93.96h-20.48Z"/>
          <path class="cls-1" d="M417.42,58c-1.97-.86-3.44-1.35-4.3-1.72-1.97-.62-3.44-1.11-4.3-1.36-1.85-.61-3.32-1.11-4.43-1.6-1.35-.49-2.71-1.11-3.81-1.72-1.35-.86-2.09-2.09-2.46-3.44-.37-1.35-.25-2.71.37-4.06.5-.98,1.11-1.72,1.97-2.22,1.23-.49,2.09-.74,2.46-.86.74-.12,1.47-.12,2.09,0h.5c.12.12.37.12.49.25h.12c.86.25,1.97.74,3.2,1.48,1.11.74,1.72,2.09,1.72,3.94h20.79c0-2.95-.49-5.91-1.47-8.74-.98-2.83-2.34-5.29-4.18-7.63-1.85-2.34-4.06-4.19-6.64-5.78-2.46-1.6-5.29-2.71-8.49-3.44-3.08-.86-6.27-1.11-9.47-.86-3.08.25-5.9.98-8.73,2.09-2.83,1.23-5.29,2.83-7.38,4.92-2.34,2.09-4.19,4.55-5.54,7.26-1.6,3.08-2.46,6.15-2.71,9.47-.37,3.2,0,6.4.86,9.72.86,3.2,2.34,6.15,4.19,8.73,1.84,2.58,4.3,4.8,7.26,6.77,2.21,1.36,4.43,2.46,6.64,3.32,2.33.86,4.55,1.6,6.4,2.22l3.32,1.11c1.35.5,2.21.86,2.83,1.11,1.23.61,2.21,1.23,2.82,1.84.86.99,1.36,1.72,1.6,2.22.25.37.49,1.11.61,2.09.12.37.12.98.12,1.6s0,1.23-.12,1.6c-.12.98-.37,1.6-.61,1.97-.25.49-.74,1.23-1.6,2.22-.74.74-1.72,1.35-2.82,1.84-1.72.74-3.44,1.11-5.05.99-.89-.06-1.73-.24-2.51-.5v21.14c1.04.1,2.08.15,3.12.15,1.97,0,4.18-.25,6.64-.61,2.34-.49,4.43-1.23,6.52-2.22,5.54-2.58,9.72-6.15,12.79-10.82,3.08-4.8,4.55-9.96,4.55-15.75s-1.47-11.07-4.55-15.87c-3.08-4.67-7.26-8.24-12.79-10.82Z"/>
          <path class="cls-1" d="M477.12,57.92c-1.97-.86-3.44-1.35-4.3-1.72-1.97-.62-3.44-1.11-4.3-1.36-1.85-.61-3.32-1.11-4.43-1.6-1.35-.49-2.71-1.11-3.81-1.72-1.35-.86-2.09-2.09-2.46-3.44-.37-1.35-.25-2.71.37-4.06.5-.98,1.11-1.72,1.97-2.22,1.23-.49,2.09-.74,2.46-.86.74-.12,1.47-.12,2.09,0h.5c.12.12.37.12.49.25h.12c.86.25,1.97.74,3.2,1.48,1.11.74,1.72,2.09,1.72,3.94h20.79c0-2.95-.49-5.91-1.47-8.74-.98-2.83-2.34-5.29-4.18-7.63-1.85-2.34-4.06-4.19-6.64-5.78-2.46-1.6-5.29-2.71-8.49-3.44-3.08-.86-6.27-1.11-9.47-.86-3.08.25-5.9.98-8.73,2.09-2.83,1.23-5.29,2.83-7.38,4.92-2.34,2.09-4.19,4.55-5.54,7.26-1.6,3.08-2.46,6.15-2.71,9.47-.37,3.2,0,6.4.86,9.72.86,3.2,2.34,6.15,4.19,8.73,1.84,2.58,4.3,4.8,7.26,6.77,2.21,1.36,4.43,2.46,6.64,3.32,2.33.86,4.55,1.6,6.4,2.22l3.32,1.11c1.35.5,2.21.86,2.83,1.11,1.23.61,2.21,1.23,2.82,1.84.86.99,1.36,1.72,1.6,2.22.25.37.49,1.11.61,2.09.12.37.12.98.12,1.6s0,1.23-.12,1.6c-.12.98-.37,1.6-.61,1.97-.25.49-.74,1.23-1.6,2.22-.74.74-1.72,1.35-2.82,1.84-1.72.74-3.44,1.11-5.05.99-.89-.06-1.73-.24-2.51-.5v21.14c1.04.1,2.08.15,3.12.15,1.97,0,4.18-.25,6.64-.61,2.34-.49,4.43-1.23,6.52-2.22,5.54-2.58,9.72-6.15,12.79-10.82,3.08-4.8,4.55-9.96,4.55-15.75s-1.47-11.07-4.55-15.87c-3.08-4.67-7.26-8.24-12.79-10.82Z"/>
          <rect class="cls-1" x="499.39" y="46.55" width="21.18" height="67.46"/>
          <path class="cls-1" d="M517.9,23.33c-1.01-1.01-2.2-1.8-3.57-2.38-1.4-.58-2.87-.89-4.37-.89s-2.96.31-4.37.89c-1.34.58-2.53,1.37-3.54,2.38-1.04,1.04-1.83,2.23-2.41,3.57-.58,1.4-.89,2.87-.89,4.37s.31,2.96.89,4.37c.55,1.31,1.34,2.47,2.41,3.54,1.07,1.07,2.23,1.86,3.54,2.41,1.4.58,2.87.89,4.37.89s2.96-.31,4.37-.89c1.34-.58,2.53-1.37,3.57-2.41s1.86-2.23,2.41-3.54c.58-1.4.89-2.87.89-4.37s-.31-2.96-.89-4.37c-.58-1.34-1.37-2.53-2.41-3.57Z"/>
          <path class="cls-1" d="M615.88,48.83c-2.08-4.83-4.83-9.18-8.32-13.07l-.03.05c-1.18-1.32-2.42-2.58-3.75-3.79-4.61-4.05-9.75-7.13-15.37-9.14-5.79-2.06-11.73-2.93-17.85-2.72-6.36.32-12.46,1.8-18.12,4.48-3.34,1.58-6.44,3.56-9.31,5.87-.17.13-.34.26-.51.4-.05.04-.09.08-.14.12-1.08.89-2.12,1.83-3.11,2.83-.04.04-.08.09-.13.13-.6.6-1.18,1.2-1.75,1.83-1.74,1.94-3.28,4.01-4.65,6.22-1.36,2.15-2.55,4.41-3.58,6.78-2.43,5.88-3.71,12.03-3.71,18.29s1.28,12.41,3.71,18.3c2.04,4.86,4.87,9.22,8.59,13.25,1.09,1.2,2.24,2.35,3.45,3.45.28.25.58.48.86.72,3.7,3.19,7.67,5.69,12.05,7.52,2.96,1.22,5.99,2.15,9.07,2.78,3.76.8,7.5,1.12,11.3.95,6.36-.33,12.46-1.8,18.12-4.48,5.66-2.68,10.66-6.47,14.94-11.19,1.83-2.08,3.45-4.28,4.88-6.59,1.29-2.04,2.4-4.17,3.34-6.41,2.43-5.89,3.71-12.03,3.71-18.3s-1.28-12.41-3.71-18.29ZM595.92,76.98c-1.41,3.2-3.33,5.88-5.5,8.06-1.59,1.59-3.37,2.93-5.32,4.03-.18.1-.35.2-.53.3-.71.38-1.45.73-2.21,1.05-.11.05-.22.09-.33.14-2.46,1.01-5.01,1.63-7.59,1.83-.44.03-.89.05-1.34.06-3.27.02-6.33-.55-9.06-1.52-3.07-1.1-5.84-2.75-8.31-4.98-2.53-2.06-4.53-4.78-6.07-8.02-1.53-3.24-2.38-6.52-2.37-9.78-.16-3.32.31-6.52,1.41-9.59.06-.17.13-.33.19-.49.11-.26.22-.53.35-.79.48-1.15,1.03-2.24,1.65-3.29.8-1.31,1.74-2.56,2.8-3.74.19-.24.4-.47.61-.7.11-.11.21-.22.32-.33,1.71-1.71,3.75-3.26,6.1-4.53.33-.17.66-.34,1-.5.8-.38,1.59-.71,2.39-1,2.66-.91,5.49-1.38,8.41-1.38,2.24,0,4.41.27,6.51.81v-.02c.69.18,1.37.38,2.04.62,2.89,1.03,5.78,2.64,8.42,4.93,2.47,2.23,4.47,4.96,5.95,8.08.23.49.45.98.65,1.48.02.05.04.1.06.15.12.31.23.62.34.93.9,2.64,1.35,5.44,1.35,8.34,0,3.45-.64,6.78-1.92,9.85Z"/>
          <path class="cls-1" d="M582.69,62.33s0,0,0-.01c0,0,0-.01-.01-.02-.15-.31-.31-.61-.48-.9-.02-.04-.05-.08-.07-.12-.17-.28-.36-.55-.55-.82-.02-.03-.04-.06-.06-.08-.2-.27-.42-.53-.64-.78-.03-.03-.05-.06-.08-.09-.1-.11-.19-.22-.29-.32-.11-.11-.23-.21-.35-.31-.04-.04-.08-.09-.13-.13-.04-.03-.07-.06-.11-.09-.18-.15-.36-.3-.55-.44-.11-.08-.22-.17-.34-.25-.13-.09-.26-.18-.4-.26-.22-.14-.44-.28-.67-.4-.02-.01-.05-.02-.07-.04-.49-.27-1-.51-1.53-.7-.87-.31-1.76-.5-2.66-.59-.01,0-.02,0-.04,0-.35-.03-.71-.05-1.06-.05-.01,0-.02,0-.04,0,0,0-.01,0-.02,0-.15,0-.3,0-.45,0-.18,0-.35.03-.53.05-.07,0-.14.01-.21.02-.29.03-.58.08-.86.13-.07.01-.15.03-.22.04-.33.07-.66.15-.99.25-.01,0-.03,0-.04.01-.29.09-.57.19-.86.3-.06.03-.13.05-.19.08-.02.01-.05.02-.07.03-.12.05-.24.09-.35.15-.17.08-.33.18-.49.26-.04.02-.08.04-.11.06-.25.14-.5.29-.74.45-.09.06-.18.12-.27.18-.18.12-.35.25-.52.39-.14.11-.28.23-.41.34-.13.11-.26.23-.39.35-.06.06-.12.11-.18.16-.07.07-.12.14-.19.21-.09.09-.18.17-.26.26-.07.07-.12.16-.19.23-.07.09-.14.17-.21.26-.15.18-.29.37-.42.57-.09.13-.18.27-.26.4-.08.13-.16.26-.24.39-.23.4-.45.81-.64,1.25-.58,1.4-.88,2.87-.88,4.36s.31,2.96.88,4.36c.34.8.78,1.55,1.3,2.25.04.05.08.11.12.16.15.2.31.39.48.58.11.13.23.26.35.38.05.06.1.11.15.17.06.06.13.11.19.17.09.09.18.18.27.27.06.05.13.1.19.15.19.17.39.32.59.47.03.03.07.05.1.08.69.51,1.41.94,2.2,1.27.83.34,1.67.58,2.54.73.2.04.41.06.61.09.06,0,.12.01.18.02.51.05,1.02.08,1.54.05,1.52-.08,2.97-.43,4.32-1.07,1.35-.64,2.54-1.54,3.56-2.67.31-.35.59-.73.85-1.11.09-.13.17-.26.25-.38.08-.13.17-.27.25-.41.12-.2.23-.41.33-.62.05-.1.1-.2.15-.3.04-.09.09-.18.13-.27.08-.19.15-.39.22-.59,0,0,0-.01,0-.02,0-.01,0-.03.01-.05.42-1.2.64-2.45.64-3.71,0-1.5-.31-2.96-.89-4.36-.06-.15-.14-.29-.21-.43Z"/>
        </g>
        <g>
          <path class="cls-1" d="M380.22,119.39h5.08c4.54,0,6.75,2.37,6.75,6.71s-2.53,6.84-6.68,6.84h-5.15v-13.55ZM381.84,120.79v10.75h3.39c3.73,0,5.19-2.1,5.19-5.44,0-3.61-1.63-5.31-5.35-5.31h-3.23Z"/>
          <path class="cls-1" d="M393.62,119.39h9.12v1.47h-7.47v4.45h6.68v1.45h-6.68v4.72h7.47v1.47h-9.12v-13.55Z"/>
          <path class="cls-1" d="M404.31,128.62l1.56-.34c.38,2.28,1.69,3.52,4.29,3.52,2.37,0,3.39-.95,3.39-2.37s-.95-2.15-3.73-2.64c-3.68-.65-4.88-2.03-4.88-4,0-2.21,1.6-3.66,4.81-3.66s4.54,1.58,5.08,4.02l-1.63.34c-.45-1.96-1.26-2.98-3.52-2.98-2.12,0-3.14.84-3.14,2.19,0,1.24.72,2.08,3.82,2.69,3.82.72,4.81,2.05,4.81,3.93,0,2.3-1.47,3.86-5.06,3.86-3.7-.02-5.42-1.83-5.8-4.56Z"/>
          <path class="cls-1" d="M416.74,132.93v-13.55h1.63v13.55h-1.63Z"/>
          <path class="cls-1" d="M419.93,126.32c0-4.29,2.17-7.18,6.48-7.18,3.5,0,5.42,1.87,5.98,4.95l-1.54.34c-.56-2.57-1.96-3.82-4.43-3.82-3.5,0-4.85,2.26-4.85,5.71s1.47,5.42,4.95,5.42,4.47-1.9,4.47-3.97v.05-.25h-4.52v-1.42h6.07v6.8h-1.54v-3.09h-.18c-.59,1.83-2.03,3.32-4.74,3.32-3.75,0-6.16-2.33-6.16-6.84Z"/>
          <path class="cls-1" d="M438.53,125.69c-.93-1.49-1.83-3.3-2.51-4.76h-.52c.14,1.9.2,4.58.2,6.62v5.4h-1.58v-13.55h2.44l3.95,6.37c1.13,1.87,2.21,3.93,2.89,5.37h.45c-.11-1.81-.2-4.34-.2-6.35v-5.4h1.56v13.55h-2.19l-4.49-7.25Z"/>
          <path class="cls-1" d="M446.78,119.39h9.12v1.47h-7.47v4.45h6.68v1.45h-6.68v4.72h7.47v1.47h-9.12v-13.55Z"/>
          <path class="cls-1" d="M462.3,127.29h-3.18v5.65h-1.65v-13.55h5.26c3.32,0,4.72,1.47,4.72,3.88,0,2.12-1.2,3.52-3.48,3.91l4.27,5.51v.25h-1.87l-4.06-5.65ZM459.12,120.81v5.06h3.46c2.05,0,3.25-.86,3.25-2.57s-.79-2.48-3.25-2.48h-3.46Z"/>
        </g>
      </g>
    </g>
  </g>
</svg>