<?xml version="1.0" encoding="UTF-8"?>
<svg id="Camada_2" data-name="Camada 2" xmlns="http://www.w3.org/2000/svg" viewBox="0 0 408.91 408.69">
  <defs>
    <style>
      .cls-1 {
        fill: #e1de03;
      }

      .cls-2 {
        fill: #070707;
      }
    </style>
  </defs>
  <g id="Camada_1-2" data-name="Camada 1">
    <path class="cls-1" d="M219.68,0l27.16,4.36c132.88,28.49,203.18,178.06,136.57,298.78-57.21,103.67-191.6,137.44-291.03,72.14l-78.57,24.73,24.8-75.45c-4.04-8.04-9.72-15.46-14.05-23.53-8.44-15.73-15.43-34.31-19.29-51.76-2.12-9.59-2.87-19.34-5.04-28.9.55-10.17-.74-21.07,0-31.14C7.49,90.22,89.72,7.8,188.56,0h31.12ZM123.76,93.65c-28.69,3.11-41.26,43.11-37.14,67.83,7.27,43.55,61.58,102.96,98.02,126.29,24.88,15.93,74.97,37.3,104.02,28.36,21.51-6.61,36.5-20.31,38.65-43.57.82-8.82,1.78-11.74-5.75-16.4-6.7-4.15-42.73-21.85-49-22.82-6.64-1.03-8.46.76-12.59,5.38-8,8.94-13.56,26.03-27.73,23.77-17.54-2.8-49.69-27.98-61.65-41.31-4.69-5.24-23.31-29.15-23.5-34.83-.26-8,20.76-21.21,20.74-31.86,0-1.8-1.18-4.4-1.8-6.2-4.46-13-12.67-32.78-18.82-45.04-.95-1.89-2.37-5.19-3.79-6.59-3.92-3.84-14.43-3.59-19.65-3.02Z"/>
    <path class="cls-2" d="M123.76,93.65c5.22-.57,15.73-.82,19.65,3.02,1.42,1.39,2.85,4.7,3.79,6.59,6.16,12.26,14.36,32.04,18.82,45.04.62,1.8,1.8,4.4,1.8,6.2.02,10.65-21,23.86-20.74,31.86.19,5.68,18.81,29.59,23.5,34.83,11.95,13.34,44.11,38.51,61.65,41.31,14.17,2.26,19.73-14.83,27.73-23.77,4.13-4.62,5.95-6.41,12.59-5.38,6.27.97,42.3,18.67,49,22.82,7.53,4.66,6.56,7.58,5.75,16.4-2.15,23.26-17.14,36.95-38.65,43.57-29.05,8.93-79.14-12.43-104.02-28.36-36.44-23.33-90.75-82.74-98.02-126.29-4.13-24.72,8.45-64.72,37.14-67.83Z"/>
  </g>
</svg>